<?xml version="1.0" standalone="no"?>
<!DOCTYPE svg PUBLIC "-//W3C//DTD SVG 20010904//EN"
 "http://www.w3.org/TR/2001/REC-SVG-20010904/DTD/svg10.dtd">
<svg version="1.0" xmlns="http://www.w3.org/2000/svg"
 width="1920.000000pt" height="1920.000000pt" viewBox="0 0 1920.000000 1920.000000"
 preserveAspectRatio="xMidYMid meet">

<g transform="translate(0.000000,1920.000000) scale(0.100000,-0.100000)"
fill="#000000" stroke="none">
<path d="M7451 17369 c-128 -25 -296 -102 -413 -189 -137 -103 -267 -270 -268
-345 0 -11 -13 -37 -29 -57 -29 -39 -33 -43 -316 -349 -473 -510 -732 -854
-963 -1279 -103 -191 -212 -482 -252 -678 -81 -400 -15 -810 178 -1094 25 -38
49 -68 52 -68 4 0 17 37 29 83 13 45 38 133 57 195 29 95 36 139 44 268 54
840 361 1591 863 2111 142 147 272 253 451 372 l130 85 125 7 c408 24 668 183
721 444 25 119 -7 301 -68 385 -68 96 -198 137 -341 109z"/>
<path d="M11231 17364 c-129 -35 -196 -128 -223 -315 -14 -93 5 -210 47 -294
55 -108 213 -226 366 -273 79 -24 225 -49 344 -57 87 -7 93 -9 180 -62 528
-325 929 -847 1159 -1512 110 -316 185 -712 199 -1047 3 -74 15 -128 63 -292
32 -111 62 -202 65 -202 13 0 98 136 138 220 51 107 106 307 122 442 55 475
-157 1078 -591 1675 -194 268 -354 458 -725 862 -250 273 -262 288 -286 370
-44 149 -297 363 -530 450 -72 27 -182 51 -234 50 -22 0 -64 -7 -94 -15z"/>
<path d="M9235 15759 c-93 -10 -217 -26 -275 -35 -221 -34 -720 -140 -737
-157 -8 -9 105 -221 176 -328 175 -264 362 -420 571 -478 70 -20 101 -21 465
-21 363 0 396 1 465 21 213 58 401 217 580 489 64 98 175 308 167 317 -23 22
-541 129 -812 167 -117 17 -400 47 -419 45 -6 -1 -87 -10 -181 -20z"/>
<path d="M7310 14285 c-515 -88 -928 -416 -1110 -881 -91 -234 -125 -449 -117
-754 8 -277 46 -516 128 -798 323 -1107 1237 -1811 2624 -2021 539 -82 1122
-49 1673 95 1035 269 1741 843 2067 1679 131 334 203 685 212 1036 6 218 -2
329 -38 503 -104 514 -460 917 -953 1081 -153 51 -236 66 -401 72 -190 7 -266
-7 -452 -81 -433 -172 -941 -260 -1301 -226 -186 18 -238 18 -392 1 -353 -39
-882 52 -1324 225 -77 31 -173 62 -214 70 -90 17 -299 17 -402 -1z m421 -1179
c198 -42 351 -199 394 -404 18 -84 22 -962 4 -1058 -6 -32 -28 -95 -49 -139
-126 -262 -438 -363 -705 -228 -111 57 -225 207 -255 335 -5 25 -10 257 -10
559 0 557 0 561 55 670 67 132 210 239 360 269 63 12 134 11 206 -4z m3683
-15 c33 -12 78 -32 100 -45 61 -36 150 -131 185 -196 60 -112 61 -124 61 -685
0 -313 -4 -527 -11 -555 -26 -114 -116 -243 -216 -309 -256 -170 -604 -76
-743 200 -59 119 -62 153 -58 705 l3 489 26 71 c63 173 195 296 365 339 78 19
210 13 288 -14z"/>
<path d="M4714 12258 c3 -35 8 -101 11 -148 4 -47 15 -150 26 -229 60 -432
205 -725 419 -844 100 -55 271 -89 256 -51 -16 42 -58 225 -85 374 -36 200
-60 401 -69 586 l-7 139 -105 36 c-134 45 -254 99 -352 155 -42 24 -82 44 -88
44 -8 0 -10 -20 -6 -62z"/>
<path d="M14095 12294 c-72 -46 -260 -131 -372 -169 -124 -41 -123 -39 -123
-149 0 -179 -71 -674 -128 -893 l-30 -113 28 0 c151 0 332 105 429 249 148
218 224 514 256 999 8 116 6 118 -60 76z"/>
<path d="M12815 9742 c-161 -191 -409 -416 -615 -557 -47 -32 -88 -61 -92 -64
-4 -4 37 -52 91 -107 277 -286 431 -590 507 -999 25 -133 25 -606 1 -825 -15
-131 -15 -146 -1 -157 56 -42 375 -42 575 1 512 109 931 409 1120 801 112 233
151 485 114 744 -31 215 -76 360 -160 512 -70 127 -104 172 -208 277 -149 151
-320 251 -567 333 -193 63 -354 90 -627 103 l-82 4 -56 -66z"/>
<path d="M5755 9793 c-374 -44 -616 -121 -840 -267 -99 -64 -235 -192 -306
-286 -114 -151 -211 -396 -244 -616 -19 -127 -19 -347 0 -456 20 -114 75 -281
124 -375 208 -398 703 -712 1238 -783 112 -15 351 -8 408 12 46 16 45 7 25
213 -18 188 -24 519 -11 650 30 308 135 610 295 848 77 115 192 253 272 326
31 29 53 56 48 60 -5 4 -47 34 -94 66 -206 142 -487 398 -624 568 l-38 47
-112 -1 c-61 -1 -124 -4 -141 -6z"/>
<path d="M9264 7341 c3 -4 -8 -5 -25 -3 -17 2 -29 0 -29 -7 0 -6 -6 -8 -13 -5
-17 6 -177 -44 -177 -56 0 -5 -6 -7 -13 -5 -18 7 -183 -79 -179 -94 1 -7 -2
-9 -8 -6 -15 9 -85 -37 -142 -95 -26 -26 -50 -45 -53 -42 -3 3 -5 1 -5 -4 0
-6 5 -15 11 -21 19 -19 3 -41 -28 -37 -26 3 -69 -27 -57 -39 3 -3 -4 -8 -15
-12 -12 -3 -21 -10 -21 -14 0 -5 -15 -28 -34 -52 -19 -23 -32 -47 -30 -51 3
-4 0 -8 -5 -8 -6 0 -11 -7 -11 -15 0 -8 -4 -15 -9 -15 -13 0 -31 -57 -25 -78
4 -12 3 -13 -3 -4 -11 15 -58 -78 -56 -110 1 -11 -4 -30 -11 -42 -19 -30 -28
-74 -16 -81 5 -3 10 -16 9 -28 -1 -20 -2 -20 -9 3 l-7 25 -13 -30 c-8 -18 -14
-93 -17 -190 -4 -137 -2 -175 17 -265 85 -413 380 -747 780 -880 347 -117 741
-57 1045 158 137 96 290 274 365 422 42 83 87 219 106 317 20 108 17 410 -4
436 -8 9 -15 33 -18 54 -9 78 -43 166 -60 159 -7 -3 -16 -1 -19 5 -4 5 -3 8 2
7 9 -3 13 5 13 25 0 8 -4 7 -11 -3 -8 -12 -9 -10 -4 8 8 28 -34 106 -114 212
-85 113 -110 137 -123 120 -8 -12 -9 -12 -4 2 8 25 -17 45 -53 43 -16 -1 -28
2 -25 7 3 4 -17 6 -43 4 -26 -2 -40 -1 -30 1 12 3 16 10 13 20 -5 13 -4 14 8
4 8 -7 23 -11 34 -9 10 2 26 -3 36 -11 9 -8 19 -11 22 -8 10 9 -106 96 -121
90 -8 -3 -15 -7 -15 -10 0 -3 7 -2 16 1 8 3 12 2 9 -4 -4 -6 1 -7 12 -3 17 6
17 6 1 -10 -18 -18 -33 -23 -24 -8 3 5 -1 12 -10 15 -13 5 -14 9 -5 20 9 11 7
17 -10 29 -12 9 -28 13 -36 10 -8 -3 -13 0 -11 7 2 7 -22 26 -52 41 -58 30
-75 35 -65 19 3 -6 -1 -7 -9 -4 -9 3 -13 11 -9 17 4 6 -2 8 -15 5 -12 -4 -20
-2 -17 2 8 12 -151 62 -201 64 -24 0 -44 3 -44 6 0 3 -77 6 -170 7 -94 1 -169
-1 -166 -6z m55 -18 c0 -12 -2 -13 -6 -5 -4 10 -8 10 -19 1 -14 -11 -20 1 -7
14 13 13 33 7 32 -10z m276 -24 c0 -8 -8 -14 -18 -15 -12 -1 -13 -1 -2 3 24 7
8 22 -18 16 -18 -4 -19 -3 -7 6 12 8 8 11 -20 12 l-35 1 30 8 c33 8 70 -9 70
-31z m-219 16 c5 -11 20 -15 58 -13 50 1 50 2 9 5 -54 5 -57 25 -3 21 22 -1
40 -6 40 -10 0 -4 8 -8 18 -8 14 0 14 -2 3 -9 -11 -7 -9 -10 10 -13 13 -2 -11
-4 -53 -4 -43 1 -78 5 -78 10 0 4 -7 6 -14 3 -10 -4 -13 -1 -10 8 3 7 -2 15
-13 18 -14 4 -13 5 5 6 12 0 25 -6 28 -14z m304 0 c5 3 17 -2 27 -12 18 -18
17 -19 -22 -18 -50 0 -87 20 -66 34 10 6 22 6 33 0 10 -6 23 -7 28 -4z m-444
-10 c-3 -18 -16 -32 -16 -17 0 7 -10 12 -22 13 -22 1 -22 1 2 9 37 12 38 11
36 -5z m91 -21 c-3 -3 -12 -4 -19 -1 -8 3 -5 6 6 6 11 1 17 -2 13 -5z m-341
-43 c-3 -5 4 -11 16 -14 13 -4 26 -1 30 6 4 7 6 4 6 -9 -2 -20 -4 -20 -35 -8
-42 18 -67 17 -28 -1 l30 -14 -31 2 c-46 2 -35 35 14 46 2 1 1 -3 -2 -8z m951
-26 c0 -20 -4 -19 -17 5 -8 15 -8 18 3 14 8 -3 14 -11 14 -19z m-75 0 c0 -5
-5 -11 -10 -13 -5 -1 -9 4 -9 13 0 9 4 14 9 13 5 -2 10 -8 10 -13z m-937 -5
c-3 -5 -11 -10 -16 -10 -6 0 -7 5 -4 10 3 6 11 10 16 10 6 0 7 -4 4 -10z m985
6 c0 -2 -7 -6 -15 -10 -8 -3 -15 -1 -15 4 0 6 7 10 15 10 8 0 15 -2 15 -4z
m-1042 -50 c-21 -16 -24 -30 -5 -23 8 3 14 -1 14 -9 0 -9 -5 -10 -15 -5 -8 5
-24 6 -36 3 l-21 -5 20 20 c19 18 41 31 55 32 3 0 -3 -6 -12 -13z m1190 -5
c11 -7 11 -9 -2 -14 -9 -4 -23 -4 -32 0 -13 5 -13 7 -2 14 7 5 15 9 18 9 3 0
11 -4 18 -9z m-1258 -82 c0 -32 -3 -39 -20 -39 -17 0 -20 7 -20 38 0 43 6 53
26 45 9 -3 14 -20 14 -44z m-50 27 c0 -2 -8 -10 -17 -17 -16 -13 -17 -12 -4 4
13 16 21 21 21 13z m1406 -23 c-6 -6 -36 9 -36 18 0 5 9 4 20 -3 10 -7 18 -14
16 -15z m-1443 -25 c3 -8 -5 -14 -19 -14 -28 -2 -32 12 -6 19 9 3 18 5 18 6 1
0 4 -5 7 -11z m1554 -80 c-3 -8 -6 -5 -6 6 -1 11 2 17 5 13 3 -3 4 -12 1 -19z
m43 -34 c0 -2 -7 -4 -15 -4 -8 0 -15 4 -15 10 0 5 7 7 15 4 8 -4 15 -8 15 -10z
m-32 -47 c3 -16 1 -17 -17 -5 -25 16 -27 31 -4 26 10 -2 19 -11 21 -21z
m-1723 -27 c0 -27 -4 -36 -17 -36 -10 0 -18 4 -18 8 0 5 -9 4 -21 -2 -11 -7
-23 -9 -27 -6 -3 3 0 6 7 6 6 0 21 15 31 33 27 45 45 43 45 -3z m1778 15 c-3
-9 -8 -14 -10 -11 -3 3 -2 9 2 15 9 16 15 13 8 -4z m28 -55 c6 0 7 5 4 10 -3
6 -2 10 4 10 5 0 13 -4 16 -10 3 -5 1 -10 -4 -10 -6 0 -11 -8 -11 -17 0 -14
-2 -15 -9 -4 -6 9 -11 10 -15 2 -12 -18 -26 -2 -25 27 l1 27 8 -25 c7 -23 8
-23 11 10 2 31 2 32 6 8 2 -16 9 -28 14 -28z m-1841 -19 c0 -5 -13 -11 -28
-13 -17 -2 -29 1 -29 7 0 6 13 12 29 13 15 1 28 -2 28 -7z m1891 -3 c1 -7 1
-19 0 -27 -2 -7 2 -10 8 -6 7 3 11 -2 11 -14 0 -12 4 -21 8 -21 5 0 9 -7 9
-16 0 -14 -2 -14 -14 2 -9 12 -13 13 -13 4 0 -22 -10 -5 -16 26 -3 16 -7 37
-10 47 -3 9 -1 17 5 17 6 0 12 -6 12 -12z m-1951 -38 c0 -5 -4 -10 -10 -10 -5
0 -10 5 -10 10 0 6 5 10 10 10 6 0 10 -4 10 -10z m14 -35 c4 -12 -1 -15 -25
-13 -17 1 -33 6 -35 10 -3 4 5 5 16 3 11 -2 20 0 20 6 0 15 17 10 24 -6z
m1946 -75 c0 -11 -4 -20 -10 -20 -5 0 -10 9 -10 20 0 11 5 20 10 20 6 0 10 -9
10 -20z m-2020 -39 c0 -11 -4 -9 -14 4 -8 11 -12 24 -9 28 7 11 23 -12 23 -32z
m-28 -13 c-7 -7 -12 -8 -12 -2 0 14 12 26 19 19 2 -3 -1 -11 -7 -17z m2129
-18 c6 0 7 6 3 13 -4 6 -4 9 0 5 4 -3 8 -10 8 -15 0 -4 4 -13 8 -18 5 -6 4
-17 -2 -25 -8 -12 -9 -12 -4 3 5 15 2 17 -17 12 -15 -4 -18 -3 -8 3 9 7 10 12
2 16 -6 4 -11 13 -10 19 0 9 2 9 6 0 2 -7 9 -13 14 -13z m-2104 -20 c-2 -10
-9 -25 -16 -34 -9 -11 -10 -16 -2 -16 6 0 11 -9 11 -20 0 -22 -15 -27 -23 -7
-4 9 -8 8 -16 -3 -5 -8 -13 -11 -17 -8 -3 4 1 15 11 24 10 10 15 27 12 40 -2
12 0 29 4 36 7 10 9 10 9 1 0 -7 5 -13 11 -13 6 0 8 7 5 16 -3 8 -2 12 4 9 5
-3 8 -14 7 -25z m2108 -40 c3 -5 1 -10 -4 -10 -6 0 -11 5 -11 10 0 6 2 10 4
10 3 0 8 -4 11 -10z m19 -34 c-5 -14 -9 -15 -15 -5 -5 8 -3 17 4 21 15 9 19 4
11 -16z m9 -106 c-13 -5 -23 -14 -23 -20 0 -5 -5 -10 -10 -10 -6 0 -5 8 2 20
7 11 22 20 33 19 18 0 18 -1 -2 -9z m-2173 -100 c0 -10 -4 -21 -9 -24 -4 -3
-8 8 -7 23 1 31 16 32 16 1z m26 14 c-3 -8 -1 -25 5 -37 7 -12 8 -19 4 -15
-13 12 -34 -12 -28 -30 4 -13 2 -14 -4 -4 -9 12 12 102 24 102 3 0 2 -7 -1
-16z m2144 -7 c11 -5 9 -6 -4 -4 -11 1 -21 9 -23 17 -3 10 -2 11 4 4 4 -6 15
-14 23 -17z m-20 -72 c0 -3 -4 -4 -9 -1 -5 4 -11 0 -14 -6 -2 -7 -4 -1 -4 14
0 23 2 25 13 13 8 -7 14 -16 14 -20z m-2049 -106 l-10 -24 0 26 c-1 14 2 29 6
33 12 12 14 -9 4 -35z m1972 -36 c5 -8 1 -11 -10 -10 -14 1 -18 10 -19 46 l-1
46 11 -35 c6 -19 14 -40 19 -47z m-1996 61 c-3 -3 -12 -4 -19 -1 -8 3 -5 6 6
6 11 1 17 -2 13 -5z m-10 -46 c-3 -8 -6 -5 -6 6 -1 11 2 17 5 13 3 -3 4 -12 1
-19z m49 -24 c-5 -20 -9 -22 -20 -12 -8 7 -12 17 -9 22 3 4 9 2 14 -5 6 -10 9
-5 10 16 0 17 3 24 6 17 3 -7 2 -24 -1 -38z m1984 42 c0 -3 -4 -8 -10 -11 -5
-3 -10 -1 -10 4 0 6 5 11 10 11 6 0 10 -2 10 -4z m-53 -78 c-3 -8 -6 -5 -6 6
-1 11 2 17 5 13 3 -3 4 -12 1 -19z m-1930 -20 c-3 -8 -6 -5 -6 6 -1 11 2 17 5
13 3 -3 4 -12 1 -19z m47 -24 c9 -3 16 -14 17 -23 0 -12 2 -11 8 4 7 16 9 11
12 -22 3 -23 1 -39 -3 -37 -5 3 -8 11 -8 18 0 7 -11 25 -25 40 -26 28 -26 29
-1 20z m1809 -9 c-3 -9 -8 -14 -10 -11 -3 3 -2 9 2 15 9 16 15 13 8 -4z m47 4
c0 -5 -4 -7 -10 -4 -5 3 -10 -2 -10 -12 0 -10 -9 -29 -19 -42 -18 -24 -18 -24
-17 -2 0 12 6 25 12 29 6 4 13 15 17 25 7 18 27 24 27 6z m-1772 -81 c-2 -6
-13 -12 -24 -14 -19 -3 -19 -3 0 12 24 17 29 18 24 2z m1699 -4 c2 -6 -7 -19
-19 -30 l-23 -19 18 21 c23 27 22 37 -3 22 -11 -7 -20 -21 -20 -30 0 -25 -15
-23 -17 2 -1 11 3 20 9 20 5 0 8 6 5 13 -3 9 4 13 21 12 14 0 27 -5 29 -11z
m-1624 -68 c20 0 33 -4 31 -8 -3 -5 -14 -6 -25 -3 -11 4 -19 2 -19 -4 0 -6 5
-11 11 -11 5 0 7 -5 3 -11 -4 -8 -1 -8 13 -1 15 8 19 7 20 -7 1 -14 -4 -17
-23 -13 -13 2 -24 9 -24 14 0 12 -26 38 -32 32 -3 -2 -11 3 -19 13 -9 11 -10
14 -1 9 6 -4 12 -3 12 3 0 5 -4 12 -10 16 -5 3 -6 13 -3 22 5 13 9 8 18 -18
11 -30 16 -34 48 -33z m-83 34 c0 -5 -2 -10 -4 -10 -3 0 -8 5 -11 10 -3 6 -1
10 4 10 6 0 11 -4 11 -10z m1580 -41 c-12 -8 -10 -9 9 -7 13 2 26 -3 29 -10 2
-7 -2 -13 -9 -11 -30 4 -41 -1 -35 -16 3 -8 1 -15 -4 -15 -7 0 -8 41 -1 68 1
1 7 2 14 2 8 0 7 -4 -3 -11z m-1410 -83 c33 -14 33 -14 10 -26 -12 -6 -20 -8
-16 -2 8 14 -20 35 -35 26 -8 -4 -9 -3 -5 4 9 15 7 15 46 -2z m1367 6 c9 -5 6
-12 -10 -21 -21 -13 -21 -13 -7 4 14 16 13 17 -7 11 -12 -4 -24 -2 -28 4 -7
12 34 14 52 2z m-42 -31 c3 -5 2 -12 -3 -15 -5 -3 -9 1 -9 9 0 17 3 19 12 6z
m-1295 -21 c0 -5 -2 -10 -4 -10 -3 0 -8 5 -11 10 -3 6 -1 10 4 10 6 0 11 -4
11 -10z m120 -38 c-8 -3 -22 -8 -31 -13 -8 -4 -22 -3 -30 3 -11 8 -11 9 4 4
10 -3 20 0 23 8 3 9 14 12 27 8 15 -4 17 -7 7 -10z m1044 3 c11 -8 14 -15 7
-15 -7 0 -10 -4 -6 -9 3 -5 0 -13 -6 -17 -7 -4 -9 -3 -6 3 4 6 -2 13 -13 16
-13 3 -18 10 -14 21 7 19 13 20 38 1z m58 7 c-6 -2 -9 -8 -6 -14 5 -8 -29 5
-43 17 -2 1 12 2 30 2 17 0 26 -2 19 -5z m-1095 -49 c-3 -3 -11 -2 -17 2 -9 6
-9 10 1 16 14 8 27 -7 16 -18z m248 -42 l30 -11 -32 5 c-18 3 -48 7 -65 10
l-33 5 34 -11 c24 -7 31 -13 23 -21 -7 -7 -16 -8 -24 -2 -23 17 -85 35 -101
28 -8 -3 -18 -1 -21 4 -8 13 151 7 189 -7z m575 -1 c15 -18 19 -18 30 -5 11
13 10 14 -4 9 -9 -3 -16 -2 -16 4 0 10 105 10 115 1 2 -3 -8 -10 -21 -16 -22
-10 -24 -10 -14 3 15 16 8 18 -20 4 -11 -5 -29 -14 -40 -20 -14 -7 -23 -6 -34
5 -8 8 -23 15 -33 15 -15 0 -16 2 -3 10 20 13 20 13 40 -10z m-30 -14 c0 -2
-9 -6 -20 -9 -11 -3 -20 -1 -20 4 0 5 9 9 20 9 11 0 20 -2 20 -4z m27 -22 c-3
-3 -12 -4 -19 -1 -8 3 -5 6 6 6 11 1 17 -2 13 -5z m-474 -31 c-7 -2 -19 -2
-25 0 -7 3 -2 5 12 5 14 0 19 -2 13 -5z m57 3 c0 -11 -19 -15 -25 -6 -3 5 1
10 9 10 9 0 16 -2 16 -4z m205 -6 c4 -6 -7 -10 -27 -10 -25 0 -29 3 -18 10 19
13 37 13 45 0z m-68 -6 c-3 -3 -12 -4 -19 -1 -8 3 -5 6 6 6 11 1 17 -2 13 -5z"/>
<path d="M9630 7310 c0 -12 28 -25 36 -17 3 3 -4 10 -15 17 -15 7 -21 7 -21 0z"/>
<path d="M8534 6892 c4 -7 2 -12 -3 -12 -6 0 -11 -7 -11 -15 0 -8 4 -15 9 -15
13 0 21 39 9 47 -7 3 -8 1 -4 -5z"/>
<path d="M9938 5653 c7 -3 16 -2 19 1 4 3 -2 6 -13 5 -11 0 -14 -3 -6 -6z"/>
<path d="M8599 7007 c0 -1 -2 -10 -4 -20 -3 -15 -1 -16 13 -5 9 7 18 13 20 14
2 1 -4 4 -13 7 -8 4 -15 5 -16 4z"/>
<path d="M6234 6643 c16 -91 17 -93 54 -109 102 -44 449 -151 645 -199 311
-76 784 -159 1017 -177 l35 -3 17 -135 c56 -441 180 -732 412 -966 219 -220
479 -336 813 -362 179 -14 438 -6 562 17 381 73 657 260 851 576 117 190 190
426 229 732 l17 137 115 13 c449 49 972 160 1352 287 288 96 269 84 282 178
l6 48 -28 -11 c-509 -198 -1081 -318 -1708 -357 -110 -7 -110 -7 -107 -32 2
-14 -2 -88 -8 -165 -18 -241 -68 -438 -154 -620 -207 -435 -562 -665 -1101
-714 -230 -21 -537 38 -750 142 -350 173 -580 495 -670 941 -26 128 -48 367
-39 414 l6 28 -189 12 c-424 26 -836 100 -1268 227 -154 45 -169 50 -314 104
l-83 31 6 -37z"/>
<path d="M3952 5873 c-38 -124 -38 -119 -1 -127 17 -3 54 -6 81 -6 77 0 396
-29 566 -51 450 -58 776 -147 1013 -276 4 -2 14 28 24 67 21 86 33 73 -160
170 -347 172 -734 252 -1386 285 l-117 6 -20 -68z"/>
<path d="M14655 5928 c-518 -26 -950 -121 -1265 -280 -187 -94 -175 -81 -153
-164 9 -38 18 -70 18 -71 1 -2 26 10 56 26 278 150 810 257 1492 300 76 5 140
11 144 14 3 4 -5 46 -19 94 l-25 88 -54 0 c-30 0 -117 -3 -194 -7z"/>
</g>
</svg>
